<svg width="32" height="32" viewBox="0 0 32 32" fill="none" xmlns="http://www.w3.org/2000/svg">
<path d="M14.6679 3.37957C13.8571 2.91142 12.9373 2.66499 12.001 2.66504C11.0647 2.66509 10.1449 2.91163 9.3341 3.37987C8.5233 3.84811 7.85005 4.52155 7.38204 5.33248C6.91403 6.14342 6.66775 7.06327 6.66796 7.99957V10.3649C5.5333 10.8209 4.60263 11.5302 3.92263 12.4649C3.0573 13.6556 2.66797 15.1129 2.66797 16.6662C2.66797 18.7476 3.72797 20.5809 5.33463 21.6556V23.3329C5.33455 24.4195 5.62952 25.4857 6.18807 26.4177C6.74661 27.3497 7.54776 28.1125 8.50599 28.6248C9.46423 29.137 10.5436 29.3794 11.6288 29.3261C12.7141 29.2729 13.7645 28.9259 14.6679 28.3222V23.3329C14.6679 21.5556 14.2279 20.4196 13.5213 19.6529C12.7973 18.8702 11.6226 18.2876 9.78262 17.9809L10.22 15.3516C11.9559 15.6396 13.4759 16.1822 14.6679 17.1022V3.37957ZM17.3346 3.37957V17.1022C18.5266 16.1822 20.0466 15.6396 21.7826 15.3516L22.2199 17.9809C20.3799 18.2876 19.2053 18.8702 18.4813 19.6542C17.7746 20.4196 17.3346 21.5556 17.3346 23.3329V28.3222C18.2381 28.9259 19.2885 29.2729 20.3737 29.3261C21.459 29.3794 22.5383 29.137 23.4965 28.6248C24.4548 28.1125 25.2559 27.3497 25.8145 26.4177C26.373 25.4857 26.668 24.4195 26.6679 23.3329V21.6556C28.2746 20.5809 29.3346 18.7489 29.3346 16.6662C29.3346 15.1129 28.9452 13.6556 28.0799 12.4662C27.3999 11.5302 26.4692 10.8209 25.3346 10.3649V7.99957C25.3348 7.06327 25.0885 6.14342 24.6205 5.33248C24.1525 4.52155 23.4792 3.84811 22.6684 3.37987C21.8576 2.91163 20.9379 2.66509 20.0016 2.66504C19.0653 2.66499 18.1455 2.91142 17.3346 3.37957Z" fill="url(#paint0_linear_2_70)"/>
<defs>
<linearGradient id="paint0_linear_2_70" x1="16.0013" y1="2.66504" x2="16.0013" y2="29.3334" gradientUnits="userSpaceOnUse">
<stop stop-color="#003ACE"/>
<stop offset="1" stop-color="#0047FF"/>
</linearGradient>
</defs>
</svg>
