<svg width="168" height="32" viewBox="0 0 168 32" fill="none" xmlns="http://www.w3.org/2000/svg">
<path d="M14.6679 3.37957C13.8571 2.91142 12.9373 2.66499 12.001 2.66504C11.0647 2.66509 10.1449 2.91163 9.3341 3.37987C8.5233 3.84811 7.85005 4.52155 7.38204 5.33248C6.91403 6.14342 6.66775 7.06327 6.66796 7.99957V10.3649C5.5333 10.8209 4.60263 11.5302 3.92263 12.4649C3.0573 13.6556 2.66797 15.1129 2.66797 16.6662C2.66797 18.7476 3.72797 20.5809 5.33463 21.6556V23.3329C5.33455 24.4195 5.62952 25.4857 6.18807 26.4177C6.74661 27.3497 7.54776 28.1125 8.50599 28.6248C9.46423 29.137 10.5436 29.3794 11.6288 29.3261C12.7141 29.2729 13.7645 28.9259 14.6679 28.3222V23.3329C14.6679 21.5556 14.2279 20.4196 13.5213 19.6529C12.7973 18.8702 11.6226 18.2876 9.78262 17.9809L10.22 15.3516C11.9559 15.6396 13.4759 16.1822 14.6679 17.1022V3.37957ZM17.3346 3.37957V17.1022C18.5266 16.1822 20.0466 15.6396 21.7826 15.3516L22.2199 17.9809C20.3799 18.2876 19.2053 18.8702 18.4813 19.6542C17.7746 20.4196 17.3346 21.5556 17.3346 23.3329V28.3222C18.2381 28.9259 19.2885 29.2729 20.3737 29.3261C21.459 29.3794 22.5383 29.137 23.4965 28.6248C24.4548 28.1125 25.2559 27.3497 25.8145 26.4177C26.373 25.4857 26.668 24.4195 26.6679 23.3329V21.6556C28.2746 20.5809 29.3346 18.7489 29.3346 16.6662C29.3346 15.1129 28.9452 13.6556 28.0799 12.4662C27.3999 11.5302 26.4692 10.8209 25.3346 10.3649V7.99957C25.3348 7.06327 25.0885 6.14342 24.6205 5.33248C24.1525 4.52155 23.4792 3.84811 22.6684 3.37987C21.8576 2.91163 20.9379 2.66509 20.0016 2.66504C19.0653 2.66499 18.1455 2.91142 17.3346 3.37957Z" fill="url(#paint0_linear_228_1003)"/>
<path d="M51.7524 8.17335V23H49.3204V16.5147H42.3444V23H39.9125V8.17335H42.3444V14.5307H49.3204V8.17335H51.7524ZM65.7274 16.8347C65.7274 17.2756 65.699 17.6738 65.6421 18.0293H56.6608C56.7319 18.968 57.0803 19.7218 57.7061 20.2907C58.3319 20.8596 59.0999 21.144 60.0101 21.144C61.3185 21.144 62.243 20.5964 62.7834 19.5013H65.4074C65.0519 20.5822 64.4048 21.4711 63.4661 22.168C62.5416 22.8507 61.3896 23.192 60.0101 23.192C58.8865 23.192 57.8768 22.9431 56.9808 22.4453C56.099 21.9333 55.4021 21.2222 54.8901 20.312C54.3923 19.3876 54.1434 18.3209 54.1434 17.112C54.1434 15.9031 54.3852 14.8436 54.8688 13.9333C55.3665 13.0089 56.0563 12.2978 56.9381 11.8C57.8341 11.3022 58.8581 11.0533 60.0101 11.0533C61.1194 11.0533 62.1079 11.2951 62.9754 11.7787C63.843 12.2622 64.5185 12.9449 65.0021 13.8267C65.4856 14.6942 65.7274 15.6969 65.7274 16.8347ZM63.1888 16.0667C63.1745 15.1707 62.8545 14.4525 62.2288 13.912C61.603 13.3716 60.8279 13.1013 59.9034 13.1013C59.0643 13.1013 58.3461 13.3716 57.7488 13.912C57.1514 14.4382 56.7959 15.1565 56.6821 16.0667H63.1888ZM67.3101 17.0693C67.3101 15.8889 67.5519 14.8436 68.0354 13.9333C68.5332 13.0231 69.2016 12.3191 70.0407 11.8213C70.8941 11.3093 71.8327 11.0533 72.8567 11.0533C73.7812 11.0533 74.5847 11.2382 75.2674 11.608C75.9643 11.9636 76.519 12.4116 76.9314 12.952V11.2453H79.3847V23H76.9314V21.2507C76.519 21.8053 75.9572 22.2676 75.2461 22.6373C74.535 23.0071 73.7243 23.192 72.8141 23.192C71.8043 23.192 70.8799 22.936 70.0407 22.424C69.2016 21.8978 68.5332 21.1724 68.0354 20.248C67.5519 19.3093 67.3101 18.2498 67.3101 17.0693ZM76.9314 17.112C76.9314 16.3013 76.7607 15.5973 76.4194 15C76.0923 14.4027 75.6585 13.9476 75.1181 13.6347C74.5776 13.3218 73.9945 13.1653 73.3687 13.1653C72.743 13.1653 72.1599 13.3218 71.6194 13.6347C71.079 13.9333 70.6381 14.3813 70.2967 14.9787C69.9696 15.5618 69.8061 16.2587 69.8061 17.0693C69.8061 17.88 69.9696 18.5911 70.2967 19.2027C70.6381 19.8142 71.079 20.2836 71.6194 20.6107C72.1741 20.9236 72.7572 21.08 73.3687 21.08C73.9945 21.08 74.5776 20.9236 75.1181 20.6107C75.6585 20.2978 76.0923 19.8427 76.4194 19.2453C76.7607 18.6338 76.9314 17.9227 76.9314 17.112ZM85.0111 7.21335V23H82.5791V7.21335H85.0111ZM91.0414 13.2293V19.736C91.0414 20.1769 91.1409 20.4969 91.3401 20.696C91.5534 20.8809 91.9089 20.9733 92.4067 20.9733H93.9001V23H91.9801C90.8849 23 90.0458 22.744 89.4627 22.232C88.8796 21.72 88.5881 20.888 88.5881 19.736V13.2293H87.2014V11.2453H88.5881V8.32268H91.0414V11.2453H93.9001V13.2293H91.0414ZM102.222 11.0533C103.118 11.0533 103.914 11.2453 104.611 11.6293C105.322 12.0133 105.877 12.5822 106.275 13.336C106.687 14.0898 106.894 15 106.894 16.0667V23H104.483V16.4293C104.483 15.3769 104.22 14.5733 103.694 14.0187C103.167 13.4498 102.449 13.1653 101.539 13.1653C100.629 13.1653 99.9033 13.4498 99.3629 14.0187C98.8367 14.5733 98.5735 15.3769 98.5735 16.4293V23H96.1416V7.21335H98.5735V12.6107C98.986 12.1129 99.5051 11.7289 100.131 11.4587C100.771 11.1885 101.468 11.0533 102.222 11.0533ZM119.574 8.17335V10.1573H115.628V23H113.196V10.1573H109.228V8.17335H119.574ZM124.469 12.952C124.825 12.3547 125.294 11.8925 125.877 11.5653C126.475 11.224 127.179 11.0533 127.989 11.0533V13.5707H127.371C126.418 13.5707 125.692 13.8125 125.195 14.296C124.711 14.7796 124.469 15.6187 124.469 16.8133V23H122.037V11.2453H124.469V12.952ZM129.414 17.0693C129.414 15.8889 129.656 14.8436 130.14 13.9333C130.637 13.0231 131.306 12.3191 132.145 11.8213C132.998 11.3093 133.937 11.0533 134.961 11.0533C135.885 11.0533 136.689 11.2382 137.372 11.608C138.068 11.9636 138.623 12.4116 139.036 12.952V11.2453H141.489V23H139.036V21.2507C138.623 21.8053 138.061 22.2676 137.35 22.6373C136.639 23.0071 135.828 23.192 134.918 23.192C133.908 23.192 132.984 22.936 132.145 22.424C131.306 21.8978 130.637 21.1724 130.14 20.248C129.656 19.3093 129.414 18.2498 129.414 17.0693ZM139.036 17.112C139.036 16.3013 138.865 15.5973 138.524 15C138.196 14.4027 137.763 13.9476 137.222 13.6347C136.682 13.3218 136.099 13.1653 135.473 13.1653C134.847 13.1653 134.264 13.3218 133.724 13.6347C133.183 13.9333 132.742 14.3813 132.401 14.9787C132.074 15.5618 131.91 16.2587 131.91 17.0693C131.91 17.88 132.074 18.5911 132.401 19.2027C132.742 19.8142 133.183 20.2836 133.724 20.6107C134.278 20.9236 134.861 21.08 135.473 21.08C136.099 21.08 136.682 20.9236 137.222 20.6107C137.763 20.2978 138.196 19.8427 138.524 19.2453C138.865 18.6338 139.036 17.9227 139.036 17.112ZM143.872 17.112C143.872 15.9031 144.114 14.8436 144.598 13.9333C145.096 13.0089 145.778 12.2978 146.646 11.8C147.513 11.3022 148.509 11.0533 149.632 11.0533C151.055 11.0533 152.228 11.3947 153.152 12.0773C154.091 12.7458 154.724 13.7058 155.051 14.9573H152.427C152.214 14.3742 151.872 13.9191 151.403 13.592C150.934 13.2649 150.344 13.1013 149.632 13.1013C148.637 13.1013 147.84 13.4569 147.243 14.168C146.66 14.8649 146.368 15.8462 146.368 17.112C146.368 18.3778 146.66 19.3662 147.243 20.0773C147.84 20.7884 148.637 21.144 149.632 21.144C151.04 21.144 151.972 20.5253 152.427 19.288H155.051C154.71 20.4827 154.07 21.4356 153.131 22.1467C152.192 22.8436 151.026 23.192 149.632 23.192C148.509 23.192 147.513 22.9431 146.646 22.4453C145.778 21.9333 145.096 21.2222 144.598 20.312C144.114 19.3876 143.872 18.3209 143.872 17.112ZM162.125 17.1333L167.544 23H164.259L159.907 17.944V23H157.475V7.21335H159.907V16.3867L164.173 11.2453H167.544L162.125 17.1333Z" fill="#212121"/>
<defs>
<linearGradient id="paint0_linear_228_1003" x1="16.0013" y1="2.66504" x2="16.0013" y2="29.3334" gradientUnits="userSpaceOnUse">
<stop stop-color="#003ACE"/>
<stop offset="1" stop-color="#0047FF"/>
</linearGradient>
</defs>
</svg>
